# xmcd CD database file
#
# Track frame offsets:
#	150
#	14761
#	31759
#	49359
#	68913
#	83852
#	101525
#	125927
#	143094
#	158007
#	177134
#	192465
#
# Disc length: 2782 seconds
#
# Revision: 3
# Processed by: cddbd v1.5.2PL0 Copyright (c) Steve Scherf et al.
# Submitted via: CDex 1.51
#
DISCID=a70adc0c
DTITLE=Gary Allan - Set You Free
DYEAR=2013
DGENRE=Country
TTITLE0=Tough Goodbye
TTITLE1=Every Storm (Runs Out Of Rain)
TTITLE2=Bones
TTITLE3=It Ain't The Whiskey
TTITLE4=Sand In My Soul
TTITLE5=You Without Me
TTITLE6=One More Time
TTITLE7=Hungover Heart
TTITLE8=No Worries
TTITLE9=Drop
TTITLE10=Pieces
TTITLE11=Good As New
EXTD=YEAR: 2013
EXTT0=
EXTT1=
EXTT2=
EXTT3=
EXTT4=
EXTT5=
EXTT6=
EXTT7=
EXTT8=
EXTT9=
EXTT10=
EXTT11=
PLAYORDER=
